<svg xmlns:xlink="http://www.w3.org/1999/xlink" xmlns="http://www.w3.org/2000/svg" viewBox="0 0 32 32" data-name="Build icon here" id="uuid-a86b25e5-0eb6-4e28-a7f6-4a6514990353">&#xa;  <defs>&#xa;    <style>&#xa;      .uuid-575b840c-0ceb-47c0-ae63-454b85d4ac05 {&#xa;        fill: #001d6c;&#xa;      }&#xa;&#xa;      .uuid-2e0b9ab1-3847-4472-897d-33d6e4350b31 {&#xa;        fill: #fff;&#xa;      }&#xa;&#xa;      .uuid-fb4ccc75-a1cd-42cc-aabd-97ca1099ff3a {&#xa;        fill: url(#uuid-ab36e9c1-d778-4367-aefc-f5418997202f);&#xa;      }&#xa;&#xa;      .uuid-6bbf483c-e5bf-40b9-a712-f83b4f71d6cd {&#xa;        fill: url(#uuid-76ca5f5c-01d2-4771-9345-20bf8f3e4996);&#xa;      }&#xa;&#xa;      .uuid-43573cd6-e1ce-4dff-8e18-a2e3e5aa9bfc {&#xa;        mask: url(#uuid-382e7da3-56b0-427b-ae89-424e42e0785c);&#xa;      }&#xa;    </style>&#xa;    <linearGradient gradientUnits="userSpaceOnUse" gradientTransform="translate(-819.511 5220.749) rotate(-180) scale(1 -1)" y2="-5194.749" x2="-832.511" y1="-5194.749" x1="-842.511" id="uuid-76ca5f5c-01d2-4771-9345-20bf8f3e4996">&#xa;      <stop stop-opacity="0" stop-color="#000" offset="0"/>&#xa;      <stop stop-color="#000" offset=".9"/>&#xa;    </linearGradient>&#xa;    <mask maskUnits="userSpaceOnUse" height="32" width="32" y="0" x="0" data-name="mask" id="uuid-382e7da3-56b0-427b-ae89-424e42e0785c">&#xa;      <g>&#xa;        <path d="m25.832,11.22c-.843-4.667-4.927-8.22-9.832-8.22S7.011,6.553,6.168,11.22c-3.53.832-6.168,4-6.168,7.78,0,4.411,3.589,8,8,8h4v-2h-4c-3.309,0-6-2.691-6-6s2.691-6,6-6c0-4.411,3.589-8,8-8s8,3.589,8,8c3.309,0,6,2.691,6,6s-2.691,6-6,6h-10v2h10c4.411,0,8-3.589,8-8,0-3.78-2.638-6.948-6.168-7.78Z" class="uuid-2e0b9ab1-3847-4472-897d-33d6e4350b31"/>&#xa;        <path d="m23,28h-10v-4h10v4Z" class="uuid-6bbf483c-e5bf-40b9-a712-f83b4f71d6cd"/>&#xa;      </g>&#xa;    </mask>&#xa;    <linearGradient gradientUnits="userSpaceOnUse" gradientTransform="translate(7282.004 1151.995)" y2="-1119.998" x2="-7282.004" y1="-1151.998" x1="-7250.004" id="uuid-ab36e9c1-d778-4367-aefc-f5418997202f">&#xa;      <stop stop-color="#a56eff" offset=".1"/>&#xa;      <stop stop-color="#0f62fe" offset=".9"/>&#xa;    </linearGradient>&#xa;  </defs>&#xa;  <g class="uuid-43573cd6-e1ce-4dff-8e18-a2e3e5aa9bfc">&#xa;    <rect transform="translate(32 32) rotate(-180)" height="32" width="32" y="0" x="0" class="uuid-fb4ccc75-a1cd-42cc-aabd-97ca1099ff3a"/>&#xa;  </g>&#xa;  <path d="m24,16c-1.302,0-2.402.839-2.816,2h-9.184v-2h-6v6h6v-2h9.184c.414,1.161,1.514,2,2.816,2,1.654,0,3-1.346,3-3s-1.346-3-3-3Zm-14,4h-2v-2h2v2Zm14,0c-.552,0-1-.448-1-1s.448-1,1-1,1,.448,1,1-.448,1-1,1Z" class="uuid-575b840c-0ceb-47c0-ae63-454b85d4ac05"/>&#xa;</svg>